<?xml version="1.0" encoding="utf-8"?>
<!-- Generator: Adobe Illustrator 17.0.0, SVG Export Plug-In . SVG Version: 6.00 Build 0)  -->
<!DOCTYPE svg PUBLIC "-//W3C//DTD SVG 1.1//EN" "http://www.w3.org/Graphics/SVG/1.1/DTD/svg11.dtd">
<svg version="1.1" id="Layer_1" xmlns="http://www.w3.org/2000/svg" xmlns:xlink="http://www.w3.org/1999/xlink" x="0px" y="0px"
	 width="640px" height="640px" viewBox="0 0 640 640" enable-background="new 0 0 640 640" xml:space="preserve">
<rect fill="#026A7F" width="640" height="640"/>
<path fill="#FFFFFF" d="M320,133.426c-78.547,0-142.222,63.675-142.222,142.222S241.453,417.87,320,417.87
	s142.222-63.675,142.222-142.222S398.547,133.426,320,133.426z M320,400.092c-68.729,0-124.444-55.716-124.444-124.444
	S251.271,151.203,320,151.203s124.444,55.716,124.444,124.444S388.729,400.092,320,400.092z"/>
<circle fill="#FFFFFF" cx="320" cy="275.648" r="106.667"/>
<path fill="#FFFFFF" d="M569.135,209.459C551.456,142.912,508.92,87.234,449.363,52.68c-41.861-24.287-88.609-36.076-135.8-34.81H80
	H0v124.444h35.556h8.889c12.062,0,22.273,8.052,25.556,19.061v52.713c-2.95,21.78,10.625,42.899,32.41,48.806
	c3.895,1.056,7.807,1.56,11.657,1.56c19.571-0.002,37.502-13.03,42.869-32.825c15.754-58.101,61.619-103.779,119.698-119.209
	c12.976-3.447,26.12-5.316,39.212-5.662H320V106.7c29.481-0.049,58.577,7.677,84.755,22.865
	c39.02,22.639,66.888,59.117,78.471,102.717c5.288,19.901,23.265,33.044,42.926,33.044c3.776,0,7.617-0.486,11.44-1.501
	C561.315,257.523,575.437,233.182,569.135,209.459z"/>
<path fill="#FFFFFF" d="M595.556,400.092c-12.061,0-22.273-8.052-25.556-19.061V328.32c2.95-21.781-10.624-42.901-32.41-48.809
	c-23.691-6.422-48.103,7.575-54.527,31.265c-15.753,58.1-61.618,103.778-119.697,119.208c-13.826,3.673-27.715,5.506-41.409,5.663
	H320v0.007c-74.687-0.017-143.164-50.013-163.226-125.53c-6.303-23.724-30.645-37.848-54.367-31.543
	c-23.723,6.303-37.845,30.643-31.542,54.366c17.68,66.546,60.216,122.225,119.773,156.778c39.833,23.111,84.083,34.92,128.938,34.92
	c2.418,0,4.838-0.041,7.259-0.11h242.055H640V400.092h-35.556H595.556z"/>
<g>
	<path fill="#FFFFFF" d="M150.318,567.167H96.81v-5.859c0-2.734-0.684-4.476-2.053-5.225c-1.368-0.748-3.65-1.123-6.842-1.123
		c-3.468,0-6.09,0.505-7.869,1.516c-1.779,1.01-2.669,2.54-2.669,4.593c0,2.638,0.998,4.625,3,5.961
		c1.91,1.336,7.337,2.947,16.281,4.833c25.646,5.432,41.799,9.889,48.459,13.371c6.659,3.483,9.991,9.099,9.991,16.846
		c0,5.632-1.848,9.782-5.543,12.451c-3.695,2.67-10.834,4.907-21.417,6.714c-10.585,1.807-22.901,2.71-36.949,2.71
		c-15.419,0-28.58-1.042-39.481-3.125c-10.903-2.083-18.042-4.736-21.417-7.959c-3.377-3.223-5.064-7.796-5.064-13.721v-5.176
		h53.508v9.619c0,2.963,0.752,4.867,2.258,5.713c1.505,0.847,4.174,1.27,8.006,1.27c3.832,0,6.682-0.537,8.553-1.611
		c1.869-1.074,2.805-2.669,2.805-4.785c0-4.654-1.779-7.698-5.337-9.131c-3.65-1.432-12.637-3.824-26.96-7.178
		c-14.324-3.385-23.811-5.843-28.464-7.373c-4.653-1.529-8.508-3.646-11.564-6.348c-3.058-2.701-4.584-6.152-4.584-10.352
		c0-6.055,2.166-10.481,6.5-13.281c4.332-2.799,11.335-4.988,21.006-6.567c9.669-1.578,21.349-2.368,35.033-2.368
		c14.962,0,27.712,0.863,38.25,2.588c10.537,1.726,17.516,3.898,20.938,6.519c3.421,2.621,5.132,7.072,5.132,13.354V567.167z"/>
	<path fill="#FFFFFF" d="M335.721,577.665h-57.613v-13.74c0-3.994-0.616-6.487-1.847-7.479c-1.231-0.99-3.948-1.486-8.142-1.486
		c-4.745,0-7.755,0.603-9.032,1.807c-1.279,1.205-1.916,3.809-1.916,7.813v36.719c0,3.842,0.637,6.348,1.916,7.52
		c1.276,1.172,4.15,1.758,8.621,1.758c4.287,0,7.093-0.587,8.416-1.762c1.321-1.175,1.984-3.932,1.984-8.272v-9.937h57.613v3.081
		c0,8.183-1.621,13.985-4.858,17.407c-3.24,3.424-10.401,6.423-21.486,8.999c-11.085,2.574-24.748,3.862-40.986,3.862
		c-16.879,0-30.791-1.091-41.739-3.271c-10.948-2.181-18.201-5.2-21.759-9.058c-3.558-3.857-5.337-9.659-5.337-17.407v-23.096
		c0-5.696,0.547-9.969,1.642-12.817c1.095-2.848,4.356-5.591,9.785-8.228c5.427-2.637,12.953-4.712,22.58-6.226
		c9.625-1.514,20.686-2.271,33.186-2.271c16.97,0,30.973,1.17,42.013,3.511c11.037,2.341,18.291,5.259,21.759,8.754
		c3.466,3.494,5.2,8.931,5.2,16.31V577.665z"/>
	<path fill="#FFFFFF" d="M484.004,543.241l32.946,79.053h-58.879l-3.092-14.209h-20.609l-3.464,14.209h-59.564l29.388-79.053
		H484.004z M453.469,594.071c-2.916-8.954-5.842-20.021-8.775-33.203c-5.869,15.138-9.556,26.205-11.057,33.203H453.469z"/>
	<path fill="#FFFFFF" d="M610.049,543.241V557h-56.93v-13.759H610.049z M610.049,546v76.294h-56.93V546H610.049z"/>
</g>
</svg>
